<svg width="93" height="85" viewBox="0 0 93 85" fill="none" xmlns="http://www.w3.org/2000/svg">
<path d="M72.5582 70.2109C72.5445 70.2111 72.5308 70.2112 72.5171 70.2111C72.5308 70.2112 72.5445 70.2113 72.5582 70.2109Z" stroke="white" stroke-width="0.2"/>
<path fill-rule="evenodd" clip-rule="evenodd" d="M46.2592 10.7338C46.3895 10.7338 46.5194 10.7336 46.6485 10.7331C51.9281 10.7114 56.1269 10.2071 61.8335 7.65798C62.4905 8.15164 62.3662 7.93483 63.7231 9.1895C64.8299 7.79811 67.8246 4.33245 70.215 3.10181C72.4285 6.51797 73.7098 14.7084 72.6679 18.5731C74.011 18.6761 78.4618 19.4739 82.4595 20.584C81.517 22.1898 77.8502 25.7583 76.8145 27.0688C77.3844 27.404 86.6429 31.4888 89.1032 32.6209L73.7405 39.3812L92.5192 53.5363L70.352 51.3725L76.0062 58.4636L64.2937 55.7559L67.7636 64.2638L54.5129 58.3563L51.9295 66.6457C50.9308 69.8503 49.6345 70.1765 46.2592 70.2115V68.853C46.2157 68.8518 46.1724 68.8505 46.1291 68.8487C43.7959 68.7514 41.5278 68.4962 41.4176 65.5819C42.5736 68.0365 44.5937 68.0767 46.1315 68.0767C46.1738 68.0767 46.2164 68.0765 46.2592 68.076V65.573L46.195 65.5737H46.1882C46.1829 65.5737 46.1777 65.5737 46.1725 65.5737L46.1657 65.5736C43.337 65.5536 41.8693 65.0648 41.093 63.6622C39.0216 59.9198 39.4948 55.5649 38.053 51.1898C36.6556 46.9495 36.4792 42.6922 31.1156 39.0452C36.1228 40.8962 38.1248 47.5731 40.5568 55.5948C40.6206 53.2218 40.5175 52.472 40.1777 50.9917C41.0434 52.2025 41.67 55.3541 41.8296 60.1322C41.8577 60.9719 41.8078 61.6459 42.0903 62.4579C42.39 63.3194 42.938 63.7705 43.1023 63.9445C42.861 63.3089 42.6424 60.4921 43.9251 58.8387C43.7663 59.655 43.7716 61.3393 44.2528 62.2466C44.361 61.9538 44.4139 61.6656 44.817 61.1134C44.8175 61.8529 44.9013 62.2635 45.0488 62.2782C45.2874 62.2961 45.3123 61.8708 45.6311 61.5642C45.8709 61.9841 45.9794 62.3272 46.1803 63.2048C46.2082 63.083 46.2342 62.9712 46.2592 62.8684V58.1059L46.2138 58.1678C44.928 56.7258 44.0742 55.0325 43.9238 53.0674C44.6267 55.5991 45.9729 55.2002 46.2138 56.0352C46.2255 55.9891 46.2409 55.9467 46.2592 55.9071V43.6675C46.2013 43.6707 46.1618 43.6697 46.0935 43.6647C43.463 43.4645 40.5937 41.9317 38.1839 41.1114C39.247 33.767 33.893 31.8241 20.917 31.4803C13.8304 31.2925 7.05271 32.5046 6.16883 32.416C11.5517 29.5233 18.924 27.697 22.1165 24.0397C19.0166 22.3385 15.0728 22.1061 11.6714 21.0286L18.9478 19.473L21.9961 21.4955C20.1384 18.2718 20.2297 12.7475 21.0632 8.65715C20.8403 11.3631 21.2564 14.1693 22.0549 15.9224C22.0749 15.2499 22.0478 14.8104 22.4123 14.0195C22.4151 14.5111 22.2819 16.5328 22.8983 18.0163C22.9919 16.7927 23.0664 15.6051 23.4521 14.7972C23.5918 15.631 23.4829 18.4515 24.3896 19.9013C24.313 18.6498 24.3173 17.5489 24.5106 16.6705C24.757 17.5177 25.0616 20.1475 25.6463 20.817C25.4865 19.7928 25.5052 18.5408 25.7216 18.1583C25.9006 18.9817 26.978 21.5869 28.0413 22.3246C26.5074 23.1897 25.1544 23.2702 23.3392 23.0489C24.6318 25.3761 27.281 24.1521 29.4982 26.9219C28.4799 22.4017 32.4352 21.674 32.2008 17.4959C32.0239 18.1741 31.7278 18.5732 31.5067 18.5371C31.3965 18.5192 31.2147 18.3149 31.1445 18.2361C29.8574 16.7909 27.07 9.84584 22.495 4.40328C22.5424 4.32405 22.5897 4.2479 22.6375 4.17763C27.11 7.76594 30.1758 11.8371 31.9556 15.7473C38.0914 13.8701 41.0724 17.3465 45.9728 17.2148C46.0752 17.2122 46.1661 17.2116 46.2592 17.2124V10.7337V10.7338ZM46.2592 41.7197V35.9956C45.0004 35.9939 43.7368 35.9958 43.0241 35.9958C42.6459 35.9958 41.9664 35.0099 41.5783 34.4365C40.9755 35.4962 40.3727 36.5558 39.7698 37.6155C41.5198 39.3409 43.7295 41.7064 46.2592 41.7196V41.7197ZM46.2592 25.7852V25.0206H44.8734C45.0409 22.68 45.0074 20.5206 44.7328 18.2604C44.6946 20.3194 44.5564 22.0967 44.0093 24.0951C43.0125 22.7218 42.2626 21.9977 40.958 21.0325C40.3863 20.6096 39.0908 20.1157 38.6604 19.542C38.3175 19.085 38.6404 17.7188 38.8451 17.2142C38.4518 17.5764 38.2667 18.0775 38.1818 18.7358C38.0884 19.46 38.3167 19.8467 38.8665 20.3272C39.6461 21.0085 40.7679 21.5929 41.7035 22.4627C43.3422 23.9861 44.1244 25.9711 42.5021 26.848C42.4461 26.8782 42.1744 26.9827 41.9819 27C41.6347 27.031 41.8644 26.8811 41.9921 26.8086C43.2338 26.1024 42.5778 25.4829 41.4168 25.5056C41.1862 25.51 40.8308 25.205 40.6058 25.079L34.7626 21.8075C31.7206 20.7977 29.7249 23.3464 29.8148 25.1073C29.8423 25.6462 30.3624 26.3223 30.6827 26.6166C30.3279 25.996 30.4499 24.7663 30.6119 24.7642C30.7459 24.7624 30.7793 25.3727 30.9975 25.7534C31.4741 26.5851 32.5419 27.1889 33.6807 27.7471C34.6158 28.2053 35.6233 28.8214 36.5894 29.0518C37.6181 29.297 38.6779 29.2183 39.3025 28.9839C37.6985 30.3273 34.0556 29.238 31.3486 27.2765C32.8844 29.623 35.7406 31.5751 40.3353 29.6525C41.8772 29.0073 42.2053 26.7288 44.8634 27.0426C44.8266 26.2411 44.9202 25.9931 45.225 25.7852H46.2592ZM42.4782 25.0609C41.2496 23.3269 39.8255 22.3922 37.8967 21.9022C39.4132 22.7874 40.7608 24.4555 42.4782 25.0609ZM49.8572 25.0609C51.0857 23.3269 52.5099 22.3922 54.4387 21.9022C52.9221 22.7874 51.5746 24.4555 49.8572 25.0609ZM34.5949 23.23C35.995 23.9341 36.9138 24.3471 38.259 25.0042C38.3583 25.0527 38.5213 25.2655 38.3344 25.6349C37.2144 27.8463 34.323 26.2676 34.5949 23.23ZM57.8145 23.23C56.4143 23.9341 55.4955 24.3471 54.1504 25.0042C54.051 25.0527 53.8881 25.2655 54.075 25.6349C55.1949 27.8463 58.0864 26.2676 57.8145 23.23ZM67.0853 26.2178C66.2547 26.9387 65.796 29.0278 65.749 29.8696C64.3174 29.886 62.003 30.2618 59.7498 30.8278C54.757 32.0819 51.6652 33.2143 53.0794 37.0925C53.0862 36.1368 53.6987 34.0002 55.0713 33.3744C54.392 34.1768 54.3238 34.7592 54.4156 35.4915C54.8386 34.2887 56.4552 33.018 58.624 32.1954C60.9929 31.2968 63.9576 30.8463 66.0333 30.8299C66.4432 30.8267 66.6993 30.5894 66.6824 30.2364C66.6061 28.6513 66.8646 27.3825 67.0853 26.2178ZM68.9669 25.6142C68.843 26.7777 68.8295 28.4443 69.0674 29.286C73.1398 29.3329 77.0315 30.1243 80.481 31.0163C76.3282 30.5602 72.3964 30.2853 68.0024 30.4329C67.9153 28.4209 68.2703 26.9421 68.9669 25.6142ZM25.2473 26.2178C26.0779 26.9387 26.5366 29.0278 26.5836 29.8696C28.0152 29.886 30.3297 30.2618 32.5829 30.8278C37.5756 32.0819 40.6674 33.2143 39.2532 37.0925C39.2464 36.1368 38.6339 34.0002 37.2613 33.3744C37.9406 34.1768 38.0088 34.7592 37.9171 35.4915C37.494 34.2887 35.8774 33.018 33.7086 32.1954C31.3397 31.2968 28.375 30.8463 26.2993 30.8299C25.8894 30.8267 25.6333 30.5894 25.6503 30.2364C25.7265 28.6513 25.4681 27.3825 25.2473 26.2178ZM23.3657 25.6142C23.4896 26.7777 23.5031 28.4443 23.2652 29.286C19.1928 29.3329 15.3011 30.1243 11.8516 31.0163C16.0044 30.5602 19.9362 30.2853 24.3302 30.4329C24.4173 28.4209 24.0623 26.9421 23.3657 25.6142ZM45.9644 28.1392C43.0229 27.8478 42.4685 28.3229 41.2624 30.4932C43.0642 28.7897 44.2029 28.3538 45.9644 28.1392ZM44.4172 29.8292C44.0782 29.648 43.6693 29.6155 42.9319 29.7822C42.3619 29.9112 41.4522 31.1804 40.5594 31.456C39.4816 31.7887 39.1472 31.6319 36.932 31.3583C38.2211 32.1223 39.5512 32.6849 40.4404 32.5726C41.177 32.4795 41.6747 31.885 42.7175 31.3779C43.0443 31.2191 43.4563 31.3329 43.8779 31.2344C44.2499 31.1476 44.7559 30.7442 44.9496 30.3021C44.4563 30.6101 44.1079 30.6575 43.2617 30.6977C43.0232 30.709 43.0381 30.5319 43.1649 30.4208C43.5423 30.0902 43.8206 29.9371 44.4172 29.8292ZM46.4211 28.1392C49.3626 27.8478 49.917 28.3229 51.1231 30.4932C49.3213 28.7897 48.1826 28.3538 46.4211 28.1392ZM47.9683 29.8292C48.3073 29.648 48.7161 29.6155 49.4536 29.7822C50.0235 29.9112 50.9333 31.1804 51.8261 31.456C52.9039 31.7887 53.2383 31.6319 55.4535 31.3583C54.1644 32.1223 52.8343 32.6849 51.945 32.5726C51.2084 32.4795 50.7108 31.885 49.6679 31.3779C49.3412 31.2191 48.9291 31.3329 48.5075 31.2344C48.1356 31.1476 47.6296 30.7442 47.4359 30.3021C47.9292 30.6101 48.2776 30.6575 49.1238 30.6977C49.3623 30.709 49.3474 30.5319 49.2205 30.4208C48.8431 30.0902 48.5649 29.9371 47.9683 29.8292ZM49.3436 45.4417C49.7689 44.8146 50.116 44.4714 50.8459 44.2583C51.3152 44.1214 51.1938 44.2849 51.2043 44.723C51.2507 46.6462 50.9679 48.3658 49.174 50.5726C49.2203 49.1599 49.3946 47.6189 49.1619 46.1861C49.0996 45.8013 49.1183 45.7737 49.3436 45.4417ZM48.9398 45.6656C48.961 46.6571 48.7418 47.1714 47.9851 48.3798C48.0062 47.6514 47.9951 46.8569 47.8892 46.1181C47.8524 45.861 47.9512 45.5037 48.1407 45.3172C48.3588 45.1024 48.9307 45.2347 48.9398 45.6656ZM47.7427 46.229C47.8069 47.1543 47.4903 47.242 46.5839 48.3695C46.5827 47.6898 46.7129 46.9484 46.5514 46.2591C46.4954 46.0191 46.4924 45.6857 46.7238 45.5116C46.99 45.3112 47.7148 45.827 47.7427 46.229ZM43.0575 45.4417C42.6322 44.8146 42.285 44.4714 41.5552 44.2583C41.0859 44.1214 41.2073 44.2849 41.1968 44.723C41.1503 46.6462 41.4332 48.3658 43.2271 50.5726C43.1808 49.1599 43.0065 47.6189 43.2392 46.1861C43.3015 45.8013 43.2828 45.7737 43.0575 45.4417ZM43.4612 45.6656C43.4401 46.6571 43.6593 47.1714 44.4159 48.3798C44.3949 47.6514 44.4059 46.8569 44.5119 46.1181C44.5487 45.861 44.4498 45.5037 44.2604 45.3172C44.0423 45.1024 43.4704 45.2347 43.4612 45.6656ZM44.6584 46.229C44.5942 47.1543 44.9108 47.242 45.8172 48.3695C45.8184 47.6898 45.6882 46.9484 45.8497 46.2591C45.9057 46.0191 45.9087 45.6857 45.6773 45.5116C45.4111 45.3112 44.6862 45.827 44.6584 46.229ZM36.9009 53.1368L33.5051 52.9156L29.2277 55.0752L26.251 62.8546L36.9009 53.1368ZM35.8731 53.4095C33.3346 54.9787 30.5549 57.1919 27.9761 59.6868C28.5053 58.4326 29.1349 57.1785 29.664 55.9244C31.7739 54.6434 33.6426 53.2216 35.8731 53.4095ZM35.2689 48.9117L28.0351 47.5033C23.2393 50.2932 22.1005 52.2985 18.5102 57.1205L35.2689 48.9117ZM33.0952 48.963C31.4877 48.7484 30.0158 48.549 28.4082 48.3343C26.4624 49.5868 22.894 51.3573 21.32 54.1137C23.9462 52.3099 25.3316 51.1524 27.7871 49.8818C28.1243 49.6804 28.5969 49.8015 28.065 50.1797L23.4098 53.1882L33.0952 48.963ZM31.3078 40.8749L21.984 37.6961L2.97478 52.0212L31.3078 40.8749ZM28.4441 40.7944L21.9336 38.4606L9.43485 47.5546C13.2359 45.2408 16.9742 42.8263 20.7752 40.5125C21.5528 40.0391 21.7893 40.3955 21.1347 40.8865L14.6594 45.3466C17.8405 43.9114 20.9339 42.2571 24.1152 40.822C24.6271 40.591 24.6884 40.9717 24.3561 41.1398L19.9442 43.7772L28.4441 40.7944ZM55.6529 53.1368L59.0487 52.9156L63.3261 55.0752L66.3028 62.8546L55.6529 53.1368ZM56.7496 53.4095C59.2881 54.9787 62.0678 57.1919 64.6466 59.6868C64.1174 58.4326 63.4878 57.1785 62.9587 55.9244C60.8488 54.6434 58.9801 53.2216 56.7496 53.4095ZM56.9992 48.8312L64.233 47.4228C68.8681 50.6553 70.7704 52.0973 73.5568 56.9998L56.9992 48.8312ZM59.1408 48.963C60.7483 48.7484 62.2202 48.549 63.8278 48.3343C65.7736 49.5868 69.342 51.3573 70.9161 54.1137C68.2899 52.3099 66.9044 51.1524 64.449 49.8818C64.1118 49.6804 63.6391 49.8015 64.1711 50.1797L68.8263 53.1882L59.1408 48.963ZM60.8288 40.8749L70.1525 37.6961L89.1618 52.0212L60.8288 40.8749ZM63.5214 40.7944L70.0319 38.4606L82.5306 47.5546C78.7296 45.2408 74.9913 42.8263 71.1903 40.5125C70.4126 40.0391 70.1762 40.3955 70.8308 40.8865L77.3061 45.3466C74.125 43.9114 71.0315 42.2571 67.8503 40.822C67.3384 40.591 67.277 40.9717 67.6094 41.1398L72.0213 43.7772L63.5214 40.7944ZM30.6857 7.65815C36.427 10.2228 40.6421 10.7177 45.967 10.7335C46.0643 10.7337 46.162 10.7337 46.26 10.7337V17.2124C46.332 17.2129 46.4053 17.2146 46.4857 17.2162C51.3498 17.3176 54.3314 13.8778 60.4418 15.7473C62.2215 11.837 65.2873 7.76587 69.7598 4.17756C69.809 4.24976 69.8576 4.32796 69.9062 4.40961C65.3344 9.85122 62.5486 16.7914 61.2621 18.236C61.1919 18.3149 61.0101 18.5192 60.8999 18.537C60.6788 18.5731 60.3827 18.174 60.2058 17.4958C59.9714 21.6739 63.9267 22.4016 62.9084 26.9219C65.1256 24.152 67.7748 25.376 69.0674 23.0488C67.2522 23.2701 65.8992 23.1897 64.3653 22.3245C65.4286 21.5868 66.506 18.9816 66.685 18.1583C66.9014 18.5407 66.9201 19.7927 66.7603 20.8169C67.345 20.1475 67.6496 17.5176 67.896 16.6704C68.0893 17.5488 68.0936 18.6497 68.017 19.9012C68.9237 18.4514 68.8148 15.6309 68.9545 14.7972C69.3402 15.605 69.4147 16.7927 69.5083 18.0162C70.1247 16.5327 69.9915 14.5111 69.9943 14.0194C70.3588 14.8103 70.3317 15.2499 70.3517 15.9223C71.1431 14.1848 71.5587 11.413 71.349 8.72947C72.1688 12.8124 72.248 18.2908 70.4013 21.4955L73.4495 19.4729L80.7259 21.0285C77.3246 22.106 73.3808 22.3385 70.2809 24.0397C73.4734 27.6969 80.8457 29.5232 86.2286 32.4159C85.3446 32.5046 78.5669 31.2924 71.4804 31.4802C58.5044 31.8241 53.1504 33.7669 54.2135 41.1113C51.8019 41.9322 48.9302 43.4667 46.2981 43.665L46.26 43.6675V55.9053C46.5807 55.2171 47.8568 55.4136 48.4737 52.9165C48.4937 54.5075 47.3702 56.5874 46.26 58.1048V62.8649C46.4143 62.2291 46.5233 61.9252 46.7295 61.5642C47.0483 61.8708 47.0733 62.2961 47.3118 62.2783C47.4593 62.2636 47.5431 61.8529 47.5437 61.1134C47.9467 61.6656 47.9996 61.9538 48.1079 62.2466C48.589 61.3393 48.5944 59.655 48.4356 58.8388C49.7183 60.4921 49.4996 63.3089 49.2584 63.9445C49.4226 63.7705 49.9706 63.3195 50.2704 62.4579C50.5528 61.646 50.503 60.972 50.531 60.1322C50.6906 55.3541 51.3172 52.2025 52.183 50.9918C51.8432 52.4721 51.74 53.2219 51.8038 55.5948C54.2358 47.5731 56.2379 40.8962 61.245 39.0452C55.8814 42.6922 55.7051 46.9495 54.3076 51.1899C52.8658 55.5649 53.339 59.9198 51.2676 63.6622C50.4973 65.054 49.046 65.5459 46.26 65.5731V68.0761C47.876 68.0608 49.8763 67.7375 50.9423 65.5819C51.0195 68.1776 48.4908 68.9147 46.26 68.8531V70.2111C42.8847 70.1767 41.5884 69.8504 40.5897 66.6459L38.0062 58.3565L24.7556 64.2639L28.2255 55.7561L16.513 58.4638L22.1672 51.3726L0 53.5365L18.7787 39.3814L3.41597 32.6211C5.87629 31.489 15.1347 27.4042 15.7047 27.069C14.669 25.7585 11.0022 22.19 10.0596 20.5841C14.0574 19.474 18.5082 18.6763 19.8513 18.5733C18.8094 14.7086 20.0906 6.51811 22.3042 3.10195C24.6946 4.33262 27.6892 7.79825 28.7961 9.18967C30.153 7.935 30.0287 8.15178 30.6857 7.65815ZM46.26 25.0206V25.7852H46.9335C47.2383 25.9931 47.332 26.2411 47.2952 27.0426C49.9532 26.7288 50.2813 29.0073 51.8233 29.6525C56.4179 31.5751 59.2742 29.623 60.8099 27.2765C58.1029 29.238 54.46 30.3273 52.8561 28.9839C53.4806 29.2183 54.5405 29.297 55.5691 29.0518C56.5353 28.8214 57.5428 28.2053 58.4778 27.7471C59.6167 27.1889 60.6844 26.5851 61.161 25.7534C61.3792 25.3727 61.4127 24.7624 61.5467 24.7642C61.7087 24.7663 61.8306 25.996 61.4758 26.6166C61.7962 26.3223 62.3162 25.6462 62.3437 25.1073C62.4337 23.3464 60.4379 20.7977 57.396 21.8075L51.5527 25.079C51.3277 25.205 50.9723 25.51 50.7417 25.5056C49.5808 25.4829 48.9247 26.1024 50.1664 26.8086C50.2941 26.8811 50.5238 27.031 50.1766 27C49.9841 26.9827 49.7124 26.8782 49.6565 26.848C48.0341 25.9711 48.8163 23.9861 50.455 22.4627C51.3906 21.5929 52.5125 21.0085 53.2921 20.3272C53.8419 19.8467 54.0701 19.46 53.9768 18.7358C53.8919 18.0775 53.7068 17.5764 53.3134 17.2142C53.5181 17.7188 53.841 19.085 53.4982 19.542C53.0677 20.1157 51.7722 20.6096 51.2005 21.0325C49.8959 21.9977 49.146 22.7218 48.1492 24.0951C47.6021 22.0967 47.4639 20.3194 47.4258 18.2604C47.1511 20.5206 47.1177 22.68 47.2851 25.0206H46.26ZM46.26 35.9956V41.7197L46.2804 41.72C48.7521 41.72 50.9424 39.386 52.6302 37.6155C52.014 36.5558 51.3978 35.4962 50.7816 34.4366C50.2851 35.1106 49.8293 36.0384 49.2907 36.0143C48.5737 36.0021 47.4189 35.9971 46.26 35.9955V35.9956Z" fill="black"/>
<path fill-rule="evenodd" clip-rule="evenodd" d="M46.1034 0C53.3433 0 60.0728 2.18791 65.668 5.93785C65.3318 6.28573 65.0115 6.63083 64.7145 6.96069C59.376 3.43374 52.9792 1.38044 46.1034 1.38044C39.3116 1.38044 32.9875 3.38441 27.6887 6.83259C27.3881 6.50156 27.0655 6.1568 26.728 5.81121C32.2854 2.13843 38.9451 0 46.1034 0ZM73.6554 13.298C74.9743 14.9555 76.1465 16.7348 77.1531 18.6162C76.5242 18.4887 75.929 18.3752 75.3851 18.2778C74.8677 17.3841 74.3106 16.5165 73.7161 15.6771C73.7345 14.9214 73.7132 14.1202 73.6554 13.298ZM79.7528 24.8584C80.0721 25.8987 80.3443 26.9594 80.5673 28.0384C79.994 27.7809 79.4614 27.5412 78.9954 27.3301C78.8913 26.8933 78.779 26.4597 78.6582 26.0297C79.0221 25.6385 79.388 25.2488 79.7528 24.8584ZM81.2582 36.8263C81.154 39.1054 80.8326 41.3278 80.3148 43.4739L79.1086 42.5646C79.4782 40.9025 79.7257 39.1943 79.8408 37.4499L81.2582 36.8263ZM76.6493 52.6784C76.0487 53.725 75.3957 54.7376 74.6941 55.7132L73.7987 54.5902C74.2682 53.9211 74.7143 53.2342 75.1354 52.5306L76.6493 52.6784ZM72.5764 58.3776C72.0652 58.9612 71.5354 59.5281 70.9871 60.0764C70.0179 61.0457 68.9916 61.958 67.915 62.8094L67.3714 61.4767C68.2925 60.7307 69.1739 59.9377 70.0112 59.1005C70.3625 58.749 70.7059 58.3894 71.0414 58.0227L72.5764 58.3776ZM65.992 64.2272C61.4746 67.3282 56.1975 69.4019 50.4978 70.1124C51.0755 69.7472 51.5336 69.2348 51.9227 68.5048C56.4964 67.711 60.7554 65.9981 64.502 63.563L65.992 64.2272ZM42.0961 70.1586C36.3 69.5012 30.9307 67.4353 26.3382 64.3117L27.8322 63.6456C31.6419 66.0972 35.9754 67.8048 40.6276 68.5628C41.0267 69.2928 41.4985 69.8001 42.0961 70.1586ZM24.5285 62.9951C23.3652 62.0914 22.2599 61.1166 21.2197 60.0764C20.6902 59.5469 20.1781 59.0001 19.6831 58.4378L21.2204 58.0824C21.5386 58.4284 21.8633 58.7681 22.1957 59.1005C23.104 60.0088 24.0642 60.8651 25.0707 61.6656L24.5285 62.9951ZM17.6612 55.9187C16.9097 54.8892 16.2126 53.8173 15.5743 52.7074L17.0889 52.5595C17.5486 53.3259 18.0375 54.0728 18.5547 54.7982L17.6612 55.9187ZM11.9404 43.6729C11.3831 41.4216 11.043 39.0849 10.9427 36.6863L12.3566 37.3086C12.4719 39.1725 12.7383 40.9957 13.1436 42.766L11.9404 43.6729ZM11.6078 28.193C11.854 26.9736 12.1633 25.777 12.532 24.6068C12.776 24.8693 13.0186 25.1289 13.2541 25.3806L13.6219 25.7736C13.4581 26.3393 13.3085 26.9111 13.1738 27.4886C12.6994 27.7028 12.1699 27.9409 11.6078 28.193ZM15.015 18.6884C16.1167 16.6177 17.4196 14.67 18.8969 12.8714C18.8278 13.6891 18.7933 14.4903 18.797 15.2518C18.0723 16.2422 17.4001 17.2733 16.7847 18.3414C16.2765 18.4351 15.7295 18.5416 15.1569 18.6592L15.015 18.6884Z" fill="black"/>
<path fill-rule="evenodd" clip-rule="evenodd" d="M29.7777 70.7795C19.7082 70.8599 8.83505 72.3083 1.98071 69.6524C7.25059 70.6161 20.2575 69.7082 23.3182 68.9458C20.5244 66.7712 14.4536 61.1825 13.4684 57.5242C14.5309 59.4343 22.8476 67.5615 29.7777 70.7795ZM62.4233 70.7795C72.4927 70.8599 83.3659 72.3083 90.2203 69.6524C84.9504 70.6161 71.9435 69.7082 68.8828 68.9458C71.6766 66.7712 77.7473 61.1825 78.7326 57.5242C77.67 59.4343 69.3533 67.5615 62.4233 70.7795Z" fill="black"/>
<path fill-rule="evenodd" clip-rule="evenodd" d="M7.69735 75.6835L7.09948 77.2381H6.9201C6.94399 77.1561 6.95592 77.0927 6.95592 77.0479C6.95592 76.9659 6.9181 76.91 6.84237 76.8802C6.76665 76.8504 6.62116 76.8355 6.40589 76.8355H4.5167V82.6046C4.5167 82.8227 4.57246 82.9794 4.68408 83.0763C4.79567 83.1732 4.99894 83.2366 5.29396 83.2664H5.42544V83.4118L5.25806 83.4006L4.32936 83.3447H3.87894L2.95023 83.4006H2.78286L2.79481 83.2664H2.92637C3.22129 83.2366 3.42463 83.1769 3.53618 83.0874C3.64777 82.998 3.70355 82.8377 3.70355 82.6046V76.8355H1.65892C1.41976 76.8355 1.23436 76.8765 1.10288 76.9585C0.971317 77.0405 0.825904 77.2418 0.666392 77.5624H0.522949L1.12082 76.0078H1.30016C1.27627 76.0898 1.26426 76.1532 1.26426 76.1979C1.26426 76.28 1.30215 76.3359 1.37793 76.3657C1.45365 76.3955 1.59907 76.4104 1.81436 76.4104H3.70355V75.1615C3.70355 74.9435 3.64777 74.7868 3.53618 74.6899C3.42463 74.5912 3.22129 74.5277 2.92637 74.4979H2.79481V74.3525L2.96226 74.3637L3.89095 74.4196H4.34131L5.26999 74.3637H5.43737L5.42544 74.4979H5.29396C4.99894 74.5277 4.79567 74.5874 4.68408 74.6787C4.57246 74.7682 4.5167 74.9285 4.5167 75.1615V76.4104H6.56139C6.80054 76.4104 6.98579 76.3694 7.11743 76.2874C7.24891 76.2054 7.39442 76.0041 7.55379 75.6835H7.69735ZM16.725 83.4118L16.5577 83.4006L15.629 83.3447H15.1786L14.2499 83.4006H14.0825L14.0946 83.2664H14.226C14.521 83.2366 14.7243 83.1769 14.8358 83.0874C14.9474 82.998 15.0033 82.8358 15.0033 82.6046V80.0453H10.6269V82.6046C10.6269 82.8209 10.6827 82.9775 10.7943 83.0763C10.9059 83.1732 11.1092 83.2366 11.4041 83.2664H11.5356V83.4118L11.3682 83.4006L10.4395 83.3447H9.98913L9.06045 83.4006H8.89308L8.90503 83.2664H9.03657C9.33151 83.2366 9.53478 83.1769 9.6464 83.0874C9.75799 82.998 9.81377 82.8358 9.81377 82.6046V77.1505C9.81377 76.9342 9.75799 76.7776 9.6464 76.6788C9.53478 76.5819 9.33151 76.5186 9.03657 76.4887H8.90503V76.3433L9.07246 76.3545L10.0012 76.4104H10.4515L11.3802 76.3545H11.5476L11.5356 76.4887H11.4041C11.1092 76.5186 10.9059 76.5782 10.7943 76.6677C10.6827 76.759 10.6269 76.9193 10.6269 77.1523V78.9716H15.0033V77.1523C15.0033 76.9342 14.9474 76.7776 14.8358 76.6788C14.7243 76.5819 14.521 76.5186 14.226 76.4887H14.0946V76.3433L14.2619 76.3545L15.1905 76.4104H15.641L16.5697 76.3545H16.7371L16.725 76.4887H16.5935C16.2986 76.5186 16.0954 76.5782 15.9837 76.6677C15.8722 76.7571 15.8163 76.9193 15.8163 77.1505V82.6046C15.8163 82.8209 15.8722 82.9775 15.9837 83.0763C16.0954 83.1732 16.2986 83.2366 16.5935 83.2664H16.725V83.4118ZM15.0033 79.6874V79.3296H10.6269V79.6874H15.0033ZM24.019 82.0249C23.8357 82.3399 23.7082 82.6084 23.6365 82.8246C23.5807 83.0744 23.5329 83.2683 23.4929 83.4118L21.6156 83.3447H19.7503L18.8176 83.4118H18.6503L18.6622 83.2776H18.7938C19.0887 83.2478 19.292 83.1881 19.4036 83.0986C19.5152 83.0073 19.5709 82.847 19.5709 82.6139V77.1523C19.5709 76.9342 19.5152 76.7776 19.4036 76.6807C19.292 76.5819 19.0887 76.5186 18.7938 76.4887H18.6622L18.6503 76.3433L18.8176 76.3545L19.7503 76.4104H23.4809L23.7082 77.6183H23.5408C23.4371 77.2362 23.3315 76.9995 23.2238 76.9119C23.1163 76.8243 22.8791 76.7795 22.5125 76.7795H20.384V79.3296H23.0864V79.6874H20.384V82.3045C20.384 82.6102 20.4139 82.7948 20.4737 82.8581C20.5335 82.9215 20.7069 82.9533 20.9939 82.9533H22.2733C22.6958 82.9533 22.9948 82.8973 23.1701 82.7855C23.3455 82.6737 23.5607 82.4276 23.8158 82.0473L24.019 82.0249ZM40.3408 76.3322L40.3288 76.4663H40.1972C39.9023 76.4962 39.6991 76.5559 39.5874 76.6453C39.4758 76.7348 39.4201 76.897 39.4201 77.1281V77.3182C39.4201 78.8374 39.2487 80.0789 38.9059 81.0426C38.4834 82.2319 37.7739 83.1042 36.7775 83.6579C36.2115 83.3447 35.7372 82.9122 35.3545 82.3604C35.0118 81.8758 34.7407 81.2943 34.5415 80.6157C34.3422 81.2794 34.0711 81.8572 33.7284 82.3493C33.3377 82.9085 32.8635 83.3447 32.3055 83.6579C31.3091 83.1042 30.5996 82.2356 30.1771 81.0538C29.8343 80.0975 29.6629 78.8523 29.6629 77.3182V77.1281C29.6629 76.9119 29.6071 76.7534 29.4936 76.6565C29.3799 76.5596 29.1746 76.4962 28.8757 76.4663H28.7422V76.3322H28.9097L29.8423 76.3992H30.2966L31.2293 76.3322H31.3967L31.3848 76.4663H31.2532C30.9583 76.4962 30.755 76.5559 30.6434 76.6453C30.5318 76.7348 30.476 76.897 30.476 77.1281V77.2847C30.476 79.05 30.6314 80.4256 30.9423 81.4079C31.2532 82.3922 31.7076 83.0446 32.3055 83.367C32.8954 83.052 33.3478 82.3959 33.6626 81.3968C33.9776 80.3995 34.1349 79.0276 34.1349 77.2847V77.1281C34.1349 76.9119 34.0792 76.7534 33.9675 76.6565C33.8559 76.5596 33.6526 76.4962 33.3577 76.4663H33.2262V76.3322H33.3937L34.3223 76.3992H34.7726L35.7013 76.3322H35.8688L35.8568 76.4663H35.7252C35.4302 76.4962 35.2271 76.5559 35.1154 76.6453C35.0039 76.7348 34.9481 76.897 34.9481 77.1281V77.2847C34.9481 79.05 35.1034 80.4256 35.4143 81.4079C35.7252 82.3922 36.1796 83.0446 36.7775 83.367C37.3674 83.052 37.8197 82.3959 38.1346 81.3968C38.4495 80.3995 38.607 79.0276 38.607 77.2847V77.1281C38.607 76.9119 38.5512 76.7534 38.4375 76.6565C38.324 76.5596 38.1187 76.4962 37.8197 76.4663H37.6862V76.3322H37.8536L38.7864 76.3992H39.2407L40.1734 76.3322H40.3408ZM44.1193 75.1802C43.7765 75.3144 43.5334 75.5418 43.3898 75.8624H43.2943C43.1507 75.5418 42.9077 75.3144 42.5648 75.1802V75.0907C42.9077 74.9565 43.1507 74.7291 43.2943 74.4084H43.3898C43.5334 74.7291 43.7765 74.9565 44.1193 75.0907V75.1802ZM44.6693 83.4118L44.5019 83.4006L43.5692 83.3447H43.1149L42.1822 83.4006H42.0149L42.0268 83.2664H42.1583C42.4532 83.2366 42.6566 83.1769 42.7681 83.0874C42.8797 82.998 42.9355 82.8358 42.9355 82.6046V77.1505C42.9355 76.9342 42.8797 76.7776 42.7681 76.6788C42.6566 76.5819 42.4532 76.5186 42.1583 76.4887H42.0268V76.3433L42.1941 76.3545L43.1268 76.4104H43.5812L44.5139 76.3545H44.6813L44.6693 76.4887H44.5358C44.2369 76.5186 44.0315 76.5782 43.918 76.6677C43.8045 76.7571 43.7485 76.9193 43.7485 77.1505V82.6046C43.7485 82.8209 43.8045 82.9775 43.918 83.0763C44.0315 83.1732 44.2369 83.2366 44.5358 83.2664H44.6693V83.4118ZM53.159 75.6835L52.5612 77.2381H52.3817C52.4057 77.1561 52.4176 77.0927 52.4176 77.0479C52.4176 76.9659 52.3798 76.91 52.3041 76.8802C52.2284 76.8504 52.0828 76.8355 51.8676 76.8355H49.9783V82.6046C49.9783 82.8227 50.0341 82.9794 50.1458 83.0763C50.2574 83.1732 50.4606 83.2366 50.7556 83.2664H50.8871V83.4118L50.7197 83.4006L49.7911 83.3447H49.3406L48.4119 83.4006H48.2445L48.2565 83.2664H48.3881C48.683 83.2366 48.8863 83.1769 48.9979 83.0874C49.1095 82.998 49.1652 82.8377 49.1652 82.6046V76.8355H47.1206C46.8814 76.8355 46.696 76.8765 46.5646 76.9585C46.433 77.0405 46.2875 77.2418 46.1281 77.5624H45.9846L46.5825 76.0078H46.7618C46.7379 76.0898 46.726 76.1532 46.726 76.1979C46.726 76.28 46.7638 76.3359 46.8396 76.3657C46.9153 76.3955 47.0607 76.4104 47.276 76.4104H49.1652V75.1615C49.1652 74.9435 49.1095 74.7868 48.9979 74.6899C48.8863 74.5912 48.683 74.5277 48.3881 74.4979H48.2565V74.3525L48.4239 74.3637L49.3526 74.4196H49.803L50.7317 74.3637H50.8991L50.8871 74.4979H50.7556C50.4606 74.5277 50.2574 74.5874 50.1458 74.6787C50.0341 74.7682 49.9783 74.9285 49.9783 75.1615V76.4104H52.0231C52.2622 76.4104 52.4475 76.3694 52.579 76.2874C52.7105 76.2054 52.8561 76.0041 53.0155 75.6835H53.159ZM61.3737 81.4657L61.1823 82.9533C60.9591 83.1098 60.5984 83.2441 60.1002 83.3559C59.602 83.4677 59.1178 83.5237 58.6474 83.5237C57.4277 83.5237 56.4154 83.203 55.6102 82.5618C54.7733 81.8982 54.3547 81.0407 54.3547 79.9894C54.3547 78.9679 54.7574 78.0918 55.5624 77.3611C56.3995 76.608 57.4277 76.2315 58.6474 76.2315C59.0699 76.2315 59.4565 76.28 59.8072 76.3769C60.158 76.4738 60.5128 76.5745 60.8714 76.6788C60.9591 76.6788 61.0349 76.6602 61.0987 76.6229L61.1823 78.0545H61.0508C60.8674 77.473 60.5526 77.0591 60.1061 76.8131C59.7156 76.5969 59.1775 76.4887 58.4919 76.4887C57.5753 76.4887 56.8279 76.8299 56.25 77.5121C55.672 78.1943 55.3831 79.0163 55.3831 79.9782C55.3831 80.9401 55.7259 81.7341 56.4114 82.3604C57.073 82.9645 57.8702 83.2664 58.8029 83.2664C59.5203 83.2664 60.0584 83.1471 60.4171 82.9085C60.8396 82.6326 61.0907 82.1517 61.1704 81.4657H61.3737ZM70.9753 83.4118L70.808 83.4006L69.8793 83.3447H69.4288L68.5001 83.4006H68.3328L68.3448 83.2664H68.4763C68.7712 83.2366 68.9745 83.1769 69.0861 83.0874C69.1977 82.998 69.2535 82.8358 69.2535 82.6046V80.0453H64.8771V82.6046C64.8771 82.8209 64.9329 82.9775 65.0446 83.0763C65.1561 83.1732 65.3595 83.2366 65.6544 83.2664H65.7859V83.4118L65.6184 83.4006L64.6898 83.3447H64.2394L63.3108 83.4006H63.1433L63.1552 83.2664H63.2869C63.5818 83.2366 63.785 83.1769 63.8967 83.0874C64.0082 82.998 64.064 82.8358 64.064 82.6046V77.1505C64.064 76.9342 64.0082 76.7776 63.8967 76.6788C63.785 76.5819 63.5818 76.5186 63.2869 76.4887H63.1552V76.3433L63.3227 76.3545L64.2514 76.4104H64.7017L65.6305 76.3545H65.7978L65.7859 76.4887H65.6544C65.3595 76.5186 65.1561 76.5782 65.0446 76.6677C64.9329 76.759 64.8771 76.9193 64.8771 77.1523V78.9716H69.2535V77.1523C69.2535 76.9342 69.1977 76.7776 69.0861 76.6788C68.9745 76.5819 68.7712 76.5186 68.4763 76.4887H68.3448V76.3433L68.5122 76.3545L69.4408 76.4104H69.8912L70.8199 76.3545H70.9873L70.9753 76.4887H70.8438C70.5488 76.5186 70.3456 76.5782 70.234 76.6677C70.1224 76.7571 70.0666 76.9193 70.0666 77.1505V82.6046C70.0666 82.8209 70.1224 82.9775 70.234 83.0763C70.3456 83.1732 70.5488 83.2366 70.8438 83.2664H70.9753V83.4118ZM69.2535 79.6874V79.3296H64.8771V79.6874H69.2535ZM78.2693 82.0249C78.086 82.3399 77.9584 82.6084 77.8867 82.8246C77.8309 83.0744 77.7831 83.2683 77.7432 83.4118L75.8658 83.3447H74.0005L73.0679 83.4118H72.9005L72.9124 83.2776H73.044C73.339 83.2478 73.5422 83.1881 73.6539 83.0986C73.7654 83.0073 73.8212 82.847 73.8212 82.6139V77.1523C73.8212 76.9342 73.7654 76.7776 73.6539 76.6807C73.5422 76.5819 73.339 76.5186 73.044 76.4887H72.9124L72.9005 76.3433L73.0679 76.3545L74.0005 76.4104H77.7313L77.9584 77.6183H77.7911C77.6873 77.2362 77.5818 76.9995 77.4741 76.9119C77.3665 76.8243 77.1294 76.7795 76.7627 76.7795H74.6343V79.3296H77.3366V79.6874H74.6343V82.3045C74.6343 82.6102 74.6642 82.7948 74.724 82.8581C74.7837 82.9215 74.9571 82.9533 75.2441 82.9533H76.5235C76.9461 82.9533 77.245 82.8973 77.4203 82.7855C77.5957 82.6737 77.811 82.4276 78.066 82.0473L78.2693 82.0249ZM91.9963 84.3513C91.9485 84.4631 91.7252 84.5992 91.3266 84.7595C90.9281 84.9198 90.5255 85 90.119 85C89.1943 85 88.1979 84.6384 87.1297 83.9151C86.5159 83.4976 85.6749 82.7855 84.6067 81.7789C83.706 80.9288 83.1081 80.4442 82.8131 80.3249H81.7609V82.6046C81.7609 82.8209 81.8166 82.9775 81.9283 83.0763C82.0399 83.1732 82.2432 83.2366 82.5381 83.2664H82.6696V83.4118L82.5022 83.4006L81.5735 83.3447H81.1232L80.1945 83.4006H80.027L80.039 83.2664H80.1705C80.4655 83.2366 80.6687 83.1769 80.7803 83.0874C80.892 82.998 80.9477 82.8358 80.9477 82.6046V77.1505C80.9477 76.9342 80.892 76.7776 80.7803 76.6788C80.6687 76.5819 80.4655 76.5186 80.1705 76.4887H80.039V76.3433L80.2064 76.3545C80.3738 76.3694 80.5213 76.3825 80.6528 76.3936C80.7843 76.4048 80.9457 76.4104 81.1371 76.4104C81.2725 76.4104 81.5914 76.4011 82.0976 76.3825C82.6019 76.3638 82.9028 76.3545 82.9984 76.3545C83.8016 76.3545 84.4373 76.5205 84.9076 76.8522C85.3759 77.184 85.6111 77.5997 85.6111 78.0992C85.6111 78.5765 85.4497 78.9958 85.1268 79.3575C84.804 79.7191 84.3755 79.9894 83.8414 80.1684C84.0328 80.2877 84.4831 80.6865 85.1926 81.3651C85.9898 82.1256 86.6553 82.7147 87.1894 83.1322C88.0504 83.8033 88.8396 84.2581 89.557 84.4967C89.8599 84.5936 90.1828 84.6421 90.5255 84.6421C90.7886 84.6421 91.0457 84.616 91.2968 84.5637C91.5479 84.5116 91.7811 84.4408 91.9963 84.3513ZM84.8219 78.3565C84.8219 77.8793 84.6426 77.4767 84.2838 77.1486C83.8853 76.7907 83.3432 76.6118 82.6577 76.6118C82.2671 76.6118 82.02 76.6397 81.9163 76.6956C81.8126 76.7515 81.7609 76.9063 81.7609 77.1598V80.0565H83.4947C83.8932 79.8999 84.2141 79.6763 84.4572 79.3855C84.7004 79.0947 84.8219 78.7517 84.8219 78.3565ZM88.3029 76.19C88.4551 76.19 88.6055 76.2295 88.7511 76.3081C88.8966 76.3869 89.0117 76.4993 89.0922 76.6461C89.1741 76.7918 89.2147 76.9448 89.2147 77.104C89.2147 77.261 89.1743 77.4116 89.0943 77.5565C89.0136 77.7024 88.9014 77.8147 88.7561 77.8954C88.6113 77.9753 88.4608 78.0157 88.3029 78.0157C88.1441 78.0157 87.9931 77.9753 87.8482 77.8954C87.7031 77.8147 87.5907 77.7024 87.51 77.5565C87.4293 77.4116 87.389 77.261 87.389 77.104C87.389 76.9448 87.4295 76.7918 87.5118 76.6461C87.5928 76.4993 87.7074 76.3869 87.8536 76.3081C87.9991 76.2295 88.1491 76.19 88.3029 76.19ZM88.3029 76.341C88.1742 76.341 88.0493 76.3738 87.9279 76.4398C87.8064 76.5055 87.7115 76.5997 87.6427 76.7218C87.5746 76.8435 87.5399 76.9712 87.5399 77.104C87.5399 77.2346 87.5742 77.3609 87.6411 77.4818C87.7084 77.602 87.8027 77.6963 87.9238 77.7636C88.0443 77.8305 88.1706 77.8648 88.3029 77.8648C88.4335 77.8648 88.5603 77.8305 88.6815 77.7636C88.802 77.6963 88.8962 77.602 88.9625 77.4818C89.0294 77.3609 89.0628 77.2346 89.0628 77.104C89.0628 76.9712 89.0291 76.8435 88.9613 76.7218C88.8929 76.5997 88.7976 76.5055 88.6764 76.4398C88.5543 76.3738 88.4295 76.341 88.3029 76.341ZM87.9022 77.6074V76.6252H88.239C88.3553 76.6252 88.4382 76.6343 88.4903 76.6524C88.5415 76.6708 88.5822 76.7022 88.6133 76.7481C88.6439 76.7934 88.6592 76.841 88.6592 76.8916C88.6592 76.9633 88.6335 77.0259 88.5822 77.0789C88.5316 77.1329 88.4631 77.1619 88.3785 77.1686C88.4129 77.1831 88.4413 77.2008 88.4618 77.2209C88.5013 77.2597 88.5498 77.325 88.6072 77.4157L88.7266 77.6074H88.5327L88.4462 77.4531C88.3774 77.3316 88.3228 77.2551 88.2802 77.2244C88.2516 77.2017 88.2096 77.1906 88.1535 77.1906H88.0605V77.6074H87.9022ZM88.0605 77.0552H88.2531C88.3446 77.0552 88.4076 77.041 88.4406 77.0139C88.4743 76.987 88.4913 76.9502 88.4913 76.9045C88.4913 76.8759 88.4832 76.85 88.4667 76.827C88.4508 76.8044 88.4284 76.787 88.3997 76.7758C88.3711 76.7644 88.3183 76.7587 88.2403 76.7587H88.0605V77.0552Z" fill="black"/>
</svg>
