<svg width="34" height="13" viewBox="0 0 34 13" fill="none" xmlns="http://www.w3.org/2000/svg">
<path d="M20.4372 11.1707L20.9221 10.4334L23.0143 12.8818H25.857L22.1575 8.55538L25.4585 3.54735H22.8881L20.4372 7.26859V0.264312H18.3251V12.8818H20.4372V11.1707ZM12.2942 11.1707L12.7791 10.4403L14.8713 12.8887H17.714L14.0145 8.55538L17.3155 3.54735H14.7451L12.2942 7.26859V0.264312H10.1821V12.8818H12.2942V11.1707ZM24.688 8.09631C24.688 10.802 26.7736 13 29.344 13C31.9144 13 34 10.802 34 8.09631C34 5.39058 31.9144 3.19262 29.344 3.19262C26.7736 3.19262 24.688 5.38363 24.688 8.09631ZM4.65599 3.19262C2.08556 3.19262 0 5.38363 0 8.09631C0 10.802 2.08556 13 4.65599 13C7.22641 13 9.31197 10.802 9.31197 8.09631C9.31862 5.38363 7.23305 3.19262 4.65599 3.19262ZM4.61614 0C4.03165 0 3.56007 0.493847 3.56007 1.11289C3.56007 1.72499 4.03165 2.22579 4.61614 2.22579C5.20062 2.22579 5.6722 1.72499 5.6722 1.11289C5.6722 0.493847 5.20062 0 4.61614 0ZM7.19984 0C6.61536 0 6.14378 0.493847 6.14378 1.11289C6.14378 1.72499 6.61536 2.22579 7.19984 2.22579C7.78433 2.22579 8.25591 1.72499 8.25591 1.11289C8.26255 0.493847 7.78433 0 7.19984 0ZM2.07228 0C1.48779 0 1.01621 0.493847 1.01621 1.11289C1.01621 1.72499 1.48779 2.22579 2.07228 2.22579C2.65677 2.22579 3.12835 1.72499 3.12835 1.11289C3.12835 0.493847 2.65677 0 2.07228 0ZM2.11213 8.09631C2.11213 6.62172 3.25454 5.41841 4.65599 5.41841C6.05743 5.41841 7.19984 6.62172 7.19984 8.09631C7.19984 9.57089 6.05743 10.7742 4.65599 10.7742C3.25454 10.7742 2.11213 9.57089 2.11213 8.09631ZM26.8002 8.09631C26.8002 6.62172 27.9426 5.41841 29.344 5.41841C30.7455 5.41841 31.8879 6.62172 31.8879 8.09631C31.8879 9.57089 30.7455 10.7742 29.344 10.7742C27.9426 10.7742 26.8002 9.57089 26.8002 8.09631Z" fill="black"/>
</svg>
